<?xml version="1.0" standalone="no"?>
<!DOCTYPE svg PUBLIC "-//W3C//DTD SVG 20010904//EN"
 "http://www.w3.org/TR/2001/REC-SVG-20010904/DTD/svg10.dtd">
<svg version="1.0" xmlns="http://www.w3.org/2000/svg"
 width="1538.000000pt" height="452.000000pt" viewBox="0 0 1538.000000 452.000000"
 preserveAspectRatio="xMidYMid meet">

<g transform="translate(0.000000,452.000000) scale(0.100000,-0.100000)"
fill="#000000" stroke="none">
<path d="M3034 3610 c-36 -14 -54 -50 -54 -107 l0 -53 -515 0 c-585 0 -570 2
-599 -71 -86 -212 -216 -563 -216 -580 0 -11 13 -34 29 -50 26 -25 37 -29 85
-29 l56 0 0 -235 0 -235 -54 0 c-57 0 -66 8 -66 54 0 23 -32 58 -61 69 -9 3
-153 -12 -320 -34 -284 -37 -306 -41 -329 -64 l-25 -25 -3 -633 c-2 -445 0
-643 8 -670 9 -30 19 -42 45 -53 33 -14 44 -11 389 105 195 66 364 124 375
130 29 16 41 43 41 95 l0 46 545 0 546 0 62 31 c34 18 139 73 232 124 94 51
215 116 270 145 131 70 168 100 199 162 32 64 35 152 7 213 -35 78 -126 144
-198 145 l-33 0 0 315 0 315 56 0 c48 0 59 4 85 29 16 16 29 39 29 50 0 11
-25 84 -55 163 -31 79 -80 207 -110 285 -30 79 -60 152 -67 163 -18 29 -61 40
-153 40 l-83 0 -4 60 c-3 43 -10 66 -24 79 -24 23 -62 32 -90 21z m-56 -417
c3 -78 4 -83 34 -108 25 -21 38 -25 62 -21 56 12 71 37 75 132 l3 85 55 -3 56
-3 73 -190 c41 -104 74 -191 74 -192 0 -2 -349 -3 -776 -3 -735 0 -776 1 -769
18 4 9 36 93 71 186 35 92 67 172 70 177 3 5 207 8 487 7 l482 -3 3 -82z m300
-810 l-3 -338 -255 -92 -255 -92 -237 0 c-131 -1 -238 3 -238 7 0 4 59 42 132
82 205 116 243 164 243 310 0 75 -3 91 -27 132 -53 88 -140 138 -243 138 -70
0 -96 -10 -246 -96 -70 -41 -134 -77 -143 -80 -14 -5 -16 14 -16 180 l0 186
645 0 645 0 -2 -337z m-807 -52 c38 -39 41 -110 7 -144 -13 -13 -97 -65 -188
-117 -91 -52 -175 -104 -187 -117 -21 -20 -23 -32 -23 -113 0 -83 2 -93 25
-115 l24 -25 341 0 341 0 307 110 c169 61 321 110 337 110 62 0 99 -80 58
-128 -10 -11 -157 -95 -327 -186 l-309 -166 -540 2 -541 3 -33 290 c-17 160
-32 302 -32 318 l-1 27 73 0 72 0 240 139 c205 119 246 140 283 140 35 1 49
-5 73 -28z m-926 -153 c2 -13 23 -192 45 -398 22 -206 44 -407 48 -447 7 -61
6 -73 -7 -79 -36 -14 -486 -164 -493 -164 -5 0 -7 237 -6 527 l3 528 190 26
c105 15 196 27 202 28 7 0 15 -9 18 -21z"/>
<path d="M6718 2454 c-34 -18 -58 -62 -58 -108 0 -45 39 -92 90 -107 52 -16
107 11 134 66 17 35 18 42 5 79 -25 72 -106 106 -171 70z"/>
<path d="M10010 1950 l0 -490 90 0 90 0 0 490 0 490 -90 0 -90 0 0 -490z"/>
<path d="M10830 2279 l0 -160 -32 25 c-68 51 -199 59 -294 17 -67 -30 -147
-111 -180 -184 -25 -54 -29 -74 -29 -157 0 -83 4 -103 29 -157 33 -73 113
-153 183 -186 38 -17 67 -22 133 -22 94 0 149 19 220 75 l38 30 33 -50 c24
-34 41 -50 57 -50 l22 0 0 490 0 490 -90 0 -90 0 0 -161z m-112 -283 c62 -32
112 -112 112 -179 0 -53 -43 -128 -92 -160 -86 -57 -205 -20 -249 77 -44 98
-4 222 86 262 40 17 109 17 143 0z"/>
<path d="M9360 2413 c-204 -31 -366 -171 -415 -358 -76 -293 125 -576 433
-610 113 -13 264 38 363 123 162 139 205 392 102 596 -81 160 -307 277 -483
249z m166 -204 c68 -26 130 -84 164 -154 35 -72 33 -180 -3 -252 -95 -186
-321 -230 -472 -92 -201 185 -76 515 197 518 35 1 79 -7 114 -20z"/>
<path d="M4405 2397 c-53 -21 -102 -56 -129 -92 -54 -70 -56 -87 -56 -481 l0
-364 90 0 90 0 0 349 0 349 25 30 c14 17 39 33 55 37 33 7 84 -15 100 -44 6
-13 10 -149 10 -370 l0 -351 95 0 95 0 0 345 c0 232 4 352 11 369 6 13 26 32
44 42 39 21 76 14 111 -21 l24 -24 0 -356 0 -355 96 0 95 0 -3 373 -3 372 -27
51 c-28 54 -77 103 -131 130 -74 39 -220 26 -286 -25 -24 -18 -25 -18 -73 12
-41 26 -60 31 -126 34 -45 1 -89 -2 -107 -10z"/>
<path d="M11470 2310 l0 -90 140 0 140 0 2 -377 3 -378 92 -3 93 -3 2 378 3
378 143 3 142 3 0 89 0 90 -380 0 -380 0 0 -90z"/>
<path d="M5537 2179 c-213 -50 -330 -313 -233 -524 95 -209 354 -269 536 -125
l38 30 33 -50 c24 -34 41 -50 57 -50 l22 0 0 350 0 350 -23 0 c-15 0 -35 -14
-55 -40 l-32 -39 -57 40 c-90 63 -184 82 -286 58z m161 -183 c62 -32 112 -113
112 -178 0 -33 -27 -98 -52 -129 -28 -34 -83 -59 -131 -59 -121 0 -193 98
-173 235 8 52 53 110 101 131 40 18 109 17 143 0z"/>
<path d="M7995 2181 c-183 -49 -298 -233 -266 -427 20 -124 83 -214 186 -265
121 -59 242 -50 356 27 28 19 54 34 58 34 4 0 22 -20 40 -45 19 -27 40 -45 52
-45 18 0 19 10 19 350 0 343 0 350 -20 350 -11 0 -36 -18 -56 -40 l-36 -39
-36 29 c-79 63 -210 94 -297 71z m165 -191 c87 -44 126 -170 81 -258 -39 -77
-131 -119 -215 -98 -33 8 -83 52 -103 90 -21 40 -21 151 0 191 45 88 148 120
237 75z"/>
<path d="M12530 2177 c-94 -27 -181 -104 -227 -202 -24 -52 -28 -72 -28 -155
0 -83 4 -102 28 -155 105 -224 384 -284 565 -120 190 171 144 508 -85 612 -66
30 -184 40 -253 20z m180 -187 c22 -11 52 -39 67 -62 24 -35 28 -52 28 -107
-1 -117 -59 -182 -169 -189 -56 -3 -65 -1 -104 28 -95 69 -109 212 -29 299 49
53 138 66 207 31z"/>
<path d="M7260 2171 c-49 -11 -88 -28 -122 -52 l-30 -21 -32 31 c-17 17 -42
31 -54 31 l-22 0 2 -347 3 -348 87 -3 87 -3 3 225 c3 209 4 227 24 253 30 41
81 65 127 59 52 -6 85 -30 108 -79 16 -37 19 -68 19 -249 l0 -208 86 0 85 0
-3 248 c-3 246 -3 247 -30 298 -64 122 -212 194 -338 165z"/>
<path d="M14343 2165 c-29 -8 -71 -27 -94 -42 l-41 -27 -29 32 c-16 18 -38 32
-49 32 -20 0 -20 -6 -20 -350 l0 -350 84 0 85 0 3 218 c3 197 5 220 23 252 55
94 187 88 237 -11 16 -29 18 -64 18 -246 l0 -213 91 0 91 0 -4 238 c-3 236 -3
237 -31 293 -68 140 -223 214 -364 174z"/>
<path d="M6130 1810 l0 -350 90 0 90 0 0 213 c0 233 3 246 59 284 30 20 46 23
132 23 l99 0 0 90 0 90 -90 0 c-113 0 -176 -14 -234 -51 l-46 -29 -28 40 c-18
26 -35 39 -49 40 l-23 0 0 -350z"/>
<path d="M6690 1810 l0 -350 90 0 90 0 0 350 0 350 -90 0 -90 0 0 -350z"/>
<path d="M13082 1903 l3 -258 30 -54 c72 -131 234 -178 362 -106 l47 26 56
-28 c73 -37 182 -39 246 -6 56 30 103 78 128 133 19 41 21 66 24 298 l3 252
-90 0 -91 0 0 -234 0 -234 -26 -31 c-34 -41 -92 -44 -129 -6 l-25 24 0 241 0
240 -90 0 -90 0 0 -231 c0 -233 -3 -259 -39 -286 -28 -22 -89 -16 -116 12
l-25 24 0 241 0 240 -91 0 -90 0 3 -257z"/>
</g>
</svg>
